# xmcd CD database file
#
# Track frame offsets:
#	150
#	10639
#	27167
#	40291
#	56394
#	69184
#	83487
#	103097
#	115043
#	128472
#	141212
#	155572
#	175699
#
# Disc length: 2535 seconds
#
# Revision: 0
# Processed by: cddbd v1.5.2PL0 Copyright (c) Steve Scherf et al.
# Submitted via: CDex 1.51
#
DISCID=9309e50d
DTITLE=Joey Allcorn - All Alone Again
DYEAR=2009
DGENRE=Country
TTITLE0=Honky Tonkin' Ramblin' Man
TTITLE1=Lonesome, Lovesick Man
TTITLE2=Huntsville
TTITLE3=Just Another Song
TTITLE4=Have At It Darlin'
TTITLE5=The Next Time We Break Up
TTITLE6=Honky Tonk Hell
TTITLE7=I'd Be Over You By Now
TTITLE8=Don't Start Thinkin' Like That
TTITLE9=Six Feet Down
TTITLE10=Down In Lousianne
TTITLE11=Waitin' By The Railroad Tracks
TTITLE12=All Alone Again
EXTD=YEAR: 2009
EXTT0=
EXTT1=
EXTT2=
EXTT3=
EXTT4=
EXTT5=
EXTT6=
EXTT7=
EXTT8=
EXTT9=
EXTT10=
EXTT11=
EXTT12=
PLAYORDER=
